<!DOCTYPE svg PUBLIC "-//W3C//DTD SVG 1.1//EN" "http://www.w3.org/Graphics/SVG/1.1/DTD/svg11.dtd" [
	<!ENTITY ns_flows "http://ns.adobe.com/Flows/1.0/">
]><svg xmlns="http://www.w3.org/2000/svg" viewBox="-.424 -.244 758 171"><circle cx="712.027" cy="45.326" r="45.326" fill="#DD4814"/><path fill="#FFF" d="M681.207 39.273c-3.344 0-6.053 2.71-6.053 6.053 0 3.342 2.71 6.05 6.053 6.05 3.342 0 6.05-2.708 6.05-6.05 0-3.344-2.71-6.053-6.05-6.053zm43.207 27.504c-2.895 1.672-3.887 5.37-2.215 8.264 1.67 2.9 5.36 3.89 8.26 2.22 2.89-1.67 3.88-5.37 2.21-8.26-1.67-2.89-5.37-3.88-8.27-2.21zm-30.063-21.45c0-5.98 2.98-11.265 7.52-14.464l-4.42-7.41c-5.29 3.54-9.23 8.947-10.87 15.28 1.91 1.56 3.13 3.933 3.13 6.593 0 2.658-1.22 5.03-3.13 6.59 1.64 6.336 5.58 11.744 10.87 15.283l4.43-7.42c-4.54-3.2-7.51-8.48-7.51-14.46zm17.68-17.68c9.24 0 16.81 7.08 17.61 16.11l8.63-.127c-.42-6.666-3.33-12.65-7.81-17.05-2.3.868-4.96.735-7.25-.59-2.3-1.327-3.74-3.567-4.14-6-2.23-.616-4.59-.954-7.02-.954-4.18 0-8.14.982-11.65 2.72l4.21 7.536c2.267-1.052 4.79-1.644 7.45-1.644zm0 35.355c-2.66 0-5.18-.592-7.44-1.645l-4.2 7.535c3.51 1.74 7.47 2.723 11.65 2.723 2.44 0 4.79-.338 7.03-.957.4-2.432 1.84-4.67 4.14-6 2.3-1.326 4.96-1.457 7.26-.588 4.48-4.4 7.39-10.385 7.81-17.05l-8.62-.128c-.79 9.032-8.37 16.11-17.6 16.11zm12.39-39.13c2.9 1.67 6.6.68 8.27-2.214 1.67-2.895.68-6.594-2.21-8.266-2.89-1.67-6.59-.678-8.26 2.217-1.67 2.89-.68 6.59 2.22 8.26z"/><path d="M90.65 164.257c-4.605 1.153-10.683 2.375-18.237 3.67-7.555 1.295-16.296 1.94-26.225 1.94-8.633 0-15.9-1.26-21.8-3.774-5.9-2.516-10.65-6.08-14.244-10.685-3.6-4.604-6.188-10.037-7.77-16.296C.79 132.852 0 125.914 0 118.285V55.262h20.073v58.706c0 13.672 2.158 23.456 6.476 29.354 4.31 5.902 11.58 8.85 21.79 8.85 2.16 0 4.38-.07 6.69-.217 2.3-.14 4.46-.323 6.47-.54 2.01-.215 3.85-.43 5.5-.645 1.65-.216 2.84-.465 3.56-.755V55.262h20.08v108.995zm48.994-104.032c2.445-1.58 6.15-3.237 11.115-4.963 4.96-1.728 10.68-2.59 17.15-2.59 8.05 0 15.21 1.438 21.47 4.315 6.26 2.88 11.54 6.907 15.86 12.088 4.31 5.18 7.59 11.368 9.82 18.562 2.23 7.196 3.34 15.107 3.34 23.74 0 9.066-1.33 17.235-3.99 24.5-2.67 7.266-6.44 13.417-11.33 18.452-4.9 5.03-10.8 8.92-17.7 11.65-6.91 2.73-14.68 4.1-23.31 4.1-9.36 0-17.63-.65-24.82-1.94-7.2-1.3-13.1-2.59-17.7-3.89V3.45L139.64.01v60.217zm0 89.788c2.013.576 4.856 1.115 8.526 1.617 3.67.506 8.235.757 13.705.757 10.792 0 19.425-3.562 25.9-10.684 6.475-7.124 9.713-17.23 9.713-30.327 0-5.75-.577-11.148-1.727-16.187-1.15-5.04-3.02-9.39-5.61-13.06-2.59-3.67-5.93-6.55-10.03-8.64-4.1-2.09-9.03-3.13-14.78-3.13-5.47 0-10.5.94-15.11 2.8-4.6 1.87-8.13 3.81-10.57 5.82V150zm190.796 14.244c-4.607 1.153-10.684 2.375-18.238 3.67-7.555 1.295-16.295 1.94-26.224 1.94-8.634 0-15.9-1.26-21.8-3.774-5.902-2.516-10.65-6.08-14.245-10.685-3.6-4.604-6.188-10.037-7.77-16.296-1.585-6.26-2.375-13.2-2.375-20.828V55.262h20.073v58.706c0 13.672 2.16 23.456 6.48 29.354 4.32 5.902 11.58 8.85 21.8 8.85 2.16 0 4.39-.07 6.69-.217 2.3-.14 4.46-.323 6.48-.54 2.02-.215 3.85-.43 5.51-.645 1.65-.216 2.84-.465 3.56-.755V55.262h20.08v108.995zM359.36 58.5c4.603-1.152 10.716-2.376 18.346-3.672 7.625-1.294 16.402-1.94 26.33-1.94 8.922 0 16.33 1.26 22.232 3.775 5.898 2.52 10.61 6.043 14.137 10.576 3.523 4.53 6.006 9.96 7.447 16.29 1.436 6.33 2.158 13.31 2.158 20.93v63.02h-20.074v-58.7c0-6.91-.47-12.81-1.402-17.7-.938-4.89-2.48-8.85-4.64-11.87-2.16-3.03-5.038-5.22-8.634-6.59-3.6-1.37-8.06-2.05-13.38-2.05-2.16 0-4.394.07-6.692.21-2.304.15-4.5.33-6.583.54-2.09.22-3.96.47-5.61.76-1.657.29-2.845.51-3.563.65v94.75H359.36V58.5zm137.053-3.238h42.52v16.835h-42.52v51.8c0 5.61.43 10.252 1.295 13.92.863 3.67 2.158 6.55 3.885 8.634 1.727 2.09 3.885 3.57 6.475 4.43s5.61 1.3 9.064 1.3c6.186 0 11.08-.68 14.678-2.05 3.594-1.36 6.043-2.34 7.338-2.91l4.316 16.41c-2.016 1.01-5.578 2.31-10.684 3.89-5.11 1.59-10.898 2.38-17.375 2.38-7.627 0-13.92-.97-18.885-2.912s-8.957-4.856-11.98-8.74c-3.02-3.887-5.145-8.67-6.366-14.355-1.225-5.68-1.836-12.26-1.836-19.744V23.965l20.074-3.453v34.75zm151.73 108.995c-4.607 1.153-10.686 2.375-18.238 3.67-7.555 1.295-16.295 1.94-26.225 1.94-8.633 0-15.9-1.26-21.8-3.774-5.9-2.516-10.65-6.08-14.245-10.685-3.598-4.604-6.188-10.037-7.77-16.296-1.586-6.26-2.375-13.2-2.375-20.828V55.262h20.074v58.706c0 13.672 2.158 23.456 6.475 29.354 4.31 5.902 11.58 8.85 21.79 8.85 2.16 0 4.38-.07 6.69-.217 2.3-.14 4.46-.323 6.47-.54 2.01-.215 3.85-.43 5.5-.645 1.65-.216 2.84-.465 3.56-.755V55.262h20.07v108.995z"/></svg>
